<svg width="328" height="83" viewBox="0 0 328 83" fill="none" xmlns="http://www.w3.org/2000/svg">
<line x1="95.5" y1="73.5" x2="95.5" y2="6.5" stroke="url(#paint0_linear_32_49)" stroke-width="3" stroke-linecap="round"/>
<mask id="mask0_32_49" style="mask-type:alpha" maskUnits="userSpaceOnUse" x="0" y="0" width="80" height="80">
<circle cx="40" cy="40" r="39.5" fill="#D9D9D9" stroke="black"/>
</mask>
<g mask="url(#mask0_32_49)">
<path d="M80.8002 66C49.6002 68 29.4949 51.779 -1.59986 66L-1.59986 83.2H80.8002V66Z" fill="#015A06"/>
<path d="M-1.59986 66C29.4949 51.779 49.6002 68 80.8002 66C80.8002 66 100.4 43.2 80.8002 48.8C61.2 54.4 29.2001 55.8327 -1.59986 41.6V66Z" fill="#327130"/>
<path d="M-1.59986 41.6C29.2001 55.8327 61.2 54.4 80.8002 48.8V38C38.8001 14 27.6 38 -3.19989 36C-3.19989 36 -7.69587 32.89 -9.59988 31.2C-9.51119 36.5164 -1.59986 41.6 -1.59986 41.6Z" fill="#639160"/>
<path d="M-3.19989 36C27.6 38 38.8001 14 80.8002 38C80.8002 38 84.4002 -7.20001 79.2002 15.6C74.0001 38.4 13.6001 3.59997 -1.59986 15.6C-9.21606 21.6128 -11.512 29.5028 -9.59988 31.2C-9.64529 28.4781 -33.9998 34 -3.19989 36Z" fill="#98B696"/>
<path d="M-1.59986 15.6C13.6001 3.59997 74.0001 38.4 79.2002 15.6V-4.00001L-1.59986 -5.60001V15.6Z" fill="#D0DED0"/>
</g>
<path d="M122.48 34.4C120.347 34.4 118.453 33.9867 116.8 33.16C115.147 32.3333 113.853 31.12 112.92 29.52C111.987 27.8933 111.52 25.92 111.52 23.6V16.44C111.52 14.12 111.987 12.16 112.92 10.56C113.88 8.93333 115.213 7.70667 116.92 6.88C118.653 6.02667 120.68 5.6 123 5.6C126.013 5.6 128.387 6.37333 130.12 7.92C131.853 9.46667 132.787 11.48 132.92 13.96H126.76C126.573 13 126.16 12.28 125.52 11.8C124.88 11.2933 123.893 11.04 122.56 11.04C121.067 11.04 119.92 11.56 119.12 12.6C118.32 13.6133 117.92 14.9867 117.92 16.72V23.32C117.92 25.0267 118.333 26.4 119.16 27.44C119.987 28.4533 121.213 28.96 122.84 28.96C123.773 28.96 124.547 28.7867 125.16 28.44C125.773 28.0933 126.227 27.6133 126.52 27C126.84 26.3867 127 25.68 127 24.88V24.12H122.08V18.76H132.92V24.04C132.92 27.6667 132.067 30.3067 130.36 31.96C128.68 33.5867 126.053 34.4 122.48 34.4ZM144.524 24.32V34H138.284V13.76H144.524V17.12C145.218 15.8667 146.031 14.9333 146.964 14.32C147.898 13.68 148.978 13.36 150.204 13.36H151.124V19.6H149.764C148.244 19.6 146.991 19.96 146.004 20.68C145.018 21.3733 144.524 22.5867 144.524 24.32ZM172.525 27.84C172.152 29.8667 171.165 31.4667 169.565 32.64C167.992 33.8133 165.938 34.4 163.405 34.4C160.578 34.4 158.285 33.6133 156.525 32.04C154.792 30.44 153.925 28.16 153.925 25.2V22.6C153.925 19.6133 154.792 17.3333 156.525 15.76C158.258 14.16 160.578 13.36 163.485 13.36C166.285 13.36 168.512 14.1867 170.165 15.84C171.818 17.4933 172.645 19.8667 172.645 22.96V25.6H160.365C160.392 25.84 160.418 26.0667 160.445 26.28C160.472 26.4667 160.512 26.6667 160.565 26.88C160.778 27.6267 161.152 28.2 161.685 28.6C162.218 28.9733 162.912 29.16 163.765 29.16C164.538 29.16 165.112 29.0267 165.485 28.76C165.885 28.4667 166.178 28.16 166.365 27.84H172.525ZM160.365 21.84H161.005H166.645C166.538 20.72 166.245 19.88 165.765 19.32C165.285 18.76 164.538 18.48 163.525 18.48C162.538 18.48 161.778 18.7867 161.245 19.4C160.738 19.9867 160.445 20.8 160.365 21.84ZM194.791 27.84C194.417 29.8667 193.431 31.4667 191.831 32.64C190.257 33.8133 188.204 34.4 185.671 34.4C182.844 34.4 180.551 33.6133 178.791 32.04C177.057 30.44 176.191 28.16 176.191 25.2V22.6C176.191 19.6133 177.057 17.3333 178.791 15.76C180.524 14.16 182.844 13.36 185.751 13.36C188.551 13.36 190.777 14.1867 192.431 15.84C194.084 17.4933 194.911 19.8667 194.911 22.96V25.6H182.631C182.657 25.84 182.684 26.0667 182.711 26.28C182.737 26.4667 182.777 26.6667 182.831 26.88C183.044 27.6267 183.417 28.2 183.951 28.6C184.484 28.9733 185.177 29.16 186.031 29.16C186.804 29.16 187.377 29.0267 187.751 28.76C188.151 28.4667 188.444 28.16 188.631 27.84H194.791ZM182.631 21.84H183.271H188.911C188.804 20.72 188.511 19.88 188.031 19.32C187.551 18.76 186.804 18.48 185.791 18.48C184.804 18.48 184.044 18.7867 183.511 19.4C183.004 19.9867 182.711 20.8 182.631 21.84ZM205.696 23.28V34H199.456V13.76H205.696V17.04C206.363 15.7333 207.19 14.8 208.176 14.24C209.19 13.6533 210.31 13.36 211.536 13.36C213.51 13.36 215.083 13.9867 216.256 15.24C217.456 16.4667 218.056 18.2667 218.056 20.64V34H211.816V22.48C211.816 21.2267 211.603 20.3067 211.176 19.72C210.75 19.1067 210.03 18.8 209.016 18.8C208.43 18.8 207.883 18.9467 207.376 19.24C206.87 19.5333 206.456 20.0133 206.136 20.68C205.843 21.32 205.696 22.1867 205.696 23.28ZM230.883 18.08C230.136 18.08 229.603 18.2133 229.283 18.48C228.963 18.72 228.803 19.0933 228.803 19.6C228.803 20.1333 228.949 20.52 229.243 20.76C229.536 21 230.016 21.1867 230.683 21.32L233.323 21.8C235.003 22.0933 236.336 22.4933 237.323 23C238.309 23.48 239.003 24.12 239.403 24.92C239.829 25.6933 240.043 26.6933 240.043 27.92C240.043 30.1067 239.309 31.7333 237.843 32.8C236.376 33.8667 234.149 34.4 231.163 34.4C228.469 34.4 226.349 33.8533 224.803 32.76C223.283 31.6667 222.363 29.9867 222.043 27.72H227.963C228.176 28.36 228.496 28.8533 228.923 29.2C229.376 29.5467 230.136 29.72 231.203 29.72C232.216 29.72 232.896 29.5867 233.243 29.32C233.616 29.0533 233.803 28.6667 233.803 28.16C233.803 27.8133 233.736 27.5467 233.603 27.36C233.496 27.1467 233.309 26.9867 233.043 26.88C232.776 26.7467 232.389 26.64 231.883 26.56L228.763 26.04C226.736 25.6933 225.189 25.0533 224.123 24.12C223.083 23.1867 222.563 21.7867 222.563 19.92C222.563 17.8667 223.256 16.2667 224.643 15.12C226.056 13.9467 228.109 13.36 230.803 13.36C233.816 13.36 236.003 13.9333 237.363 15.08C238.749 16.2267 239.496 17.8933 239.603 20.08H233.443C233.336 19.4133 233.096 18.92 232.723 18.6C232.349 18.2533 231.736 18.08 230.883 18.08ZM257.415 28.96V34.2H253.375C250.655 34.2 248.669 33.5733 247.415 32.32C246.189 31.04 245.575 28.9467 245.575 26.04V19H242.655V13.76H245.575V8H251.815V13.76H257.415V19H251.815V26.04C251.815 26.8667 252.015 27.56 252.415 28.12C252.815 28.68 253.575 28.96 254.695 28.96H257.415ZM269.893 34.4C266.96 34.4 264.613 33.6133 262.853 32.04C261.093 30.44 260.213 28.16 260.213 25.2V22.6C260.213 19.6133 261.093 17.3333 262.853 15.76C264.613 14.16 266.96 13.36 269.893 13.36C272.853 13.36 275.213 14.16 276.973 15.76C278.733 17.3333 279.613 19.6133 279.613 22.6V25.2C279.613 28.16 278.733 30.44 276.973 32.04C275.213 33.6133 272.853 34.4 269.893 34.4ZM269.893 18.8C268.773 18.8 267.946 19.1733 267.413 19.92C266.88 20.64 266.613 21.6267 266.613 22.88V24.92C266.613 26.1467 266.88 27.1333 267.413 27.88C267.946 28.6 268.773 28.96 269.893 28.96C271.04 28.96 271.88 28.6 272.413 27.88C272.946 27.1333 273.213 26.1467 273.213 24.92V22.88C273.213 21.6267 272.946 20.64 272.413 19.92C271.88 19.1733 271.04 18.8 269.893 18.8ZM290.423 23.28V34H284.183V13.76H290.423V17.04C291.089 15.7333 291.916 14.8 292.903 14.24C293.916 13.6533 295.036 13.36 296.263 13.36C298.236 13.36 299.809 13.9867 300.983 15.24C302.183 16.4667 302.783 18.2667 302.783 20.64V34H296.543V22.48C296.543 21.2267 296.329 20.3067 295.903 19.72C295.476 19.1067 294.756 18.8 293.743 18.8C293.156 18.8 292.609 18.9467 292.103 19.24C291.596 19.5333 291.183 20.0133 290.863 20.68C290.569 21.32 290.423 22.1867 290.423 23.28ZM325.689 27.84C325.316 29.8667 324.329 31.4667 322.729 32.64C321.156 33.8133 319.102 34.4 316.569 34.4C313.742 34.4 311.449 33.6133 309.689 32.04C307.956 30.44 307.089 28.16 307.089 25.2V22.6C307.089 19.6133 307.956 17.3333 309.689 15.76C311.422 14.16 313.742 13.36 316.649 13.36C319.449 13.36 321.676 14.1867 323.329 15.84C324.982 17.4933 325.809 19.8667 325.809 22.96V25.6H313.529C313.556 25.84 313.582 26.0667 313.609 26.28C313.636 26.4667 313.676 26.6667 313.729 26.88C313.942 27.6267 314.316 28.2 314.849 28.6C315.382 28.9733 316.076 29.16 316.929 29.16C317.702 29.16 318.276 29.0267 318.649 28.76C319.049 28.4667 319.342 28.16 319.529 27.84H325.689ZM313.529 21.84H314.169H319.809C319.702 20.72 319.409 19.88 318.929 19.32C318.449 18.76 317.702 18.48 316.689 18.48C315.702 18.48 314.942 18.7867 314.409 19.4C313.902 19.9867 313.609 20.8 313.529 21.84ZM120.32 62.76H115.72V74H112.6V46H120.24C122.533 46 124.4 46.3067 125.84 46.92C127.307 47.5067 128.373 48.36 129.04 49.48C129.733 50.6 130.08 51.9733 130.08 53.6V55.24C130.08 56.76 129.707 58.08 128.96 59.2C128.213 60.32 127.107 61.2 125.64 61.84C124.2 62.4533 122.427 62.76 120.32 62.76ZM120.16 48.72H115.72V60.04H120.2C122.493 60.04 124.173 59.6 125.24 58.72C126.333 57.8133 126.88 56.6267 126.88 55.16V53.68C126.88 52.6933 126.667 51.8267 126.24 51.08C125.813 50.3333 125.107 49.76 124.12 49.36C123.133 48.9333 121.813 48.72 120.16 48.72ZM137.862 62.88V74H134.702V44.8H137.862V58.24C138.475 56.8533 139.329 55.8133 140.422 55.12C141.542 54.4267 142.795 54.08 144.182 54.08C146.315 54.08 147.942 54.6533 149.062 55.8C150.182 56.92 150.742 58.6667 150.742 61.04V74H147.622V61.68C147.622 60.0267 147.275 58.8 146.582 58C145.889 57.2 144.742 56.8 143.142 56.8C142.182 56.8 141.302 57.04 140.502 57.52C139.702 58 139.062 58.6933 138.582 59.6C138.102 60.48 137.862 61.5733 137.862 62.88ZM163.045 72.12C164.671 72.12 165.925 71.7333 166.805 70.96C167.685 70.16 168.125 68.84 168.125 67V65.08H163.005C161.485 65.08 160.431 65.3467 159.845 65.88C159.258 66.3867 158.965 67.1067 158.965 68.04V68.88C158.965 69.9467 159.298 70.76 159.965 71.32C160.631 71.8533 161.658 72.12 163.045 72.12ZM168.125 74V71.28C167.618 72.32 166.885 73.1067 165.925 73.64C164.991 74.1467 163.725 74.4 162.125 74.4C160.098 74.4 158.538 73.9333 157.445 73C156.378 72.0667 155.845 70.8 155.845 69.2V68C155.845 66.5867 156.365 65.4133 157.405 64.48C158.445 63.5467 160.218 63.08 162.725 63.08H168.125V61.44C168.125 59.76 167.805 58.5733 167.165 57.88C166.525 57.16 165.418 56.8 163.845 56.8C162.431 56.8 161.391 57.1067 160.725 57.72C160.058 58.3333 159.658 59.1333 159.525 60.12H156.485C156.725 58.3333 157.431 56.88 158.605 55.76C159.805 54.64 161.645 54.08 164.125 54.08C166.525 54.08 168.311 54.6533 169.485 55.8C170.658 56.92 171.245 58.6667 171.245 61.04V74H168.125ZM180.713 63.08V74H177.553V54.48H180.713V57.92C181.327 56.6133 182.14 55.6533 183.153 55.04C184.167 54.4 185.327 54.08 186.633 54.08H187.593V57.12H186.553C184.82 57.12 183.407 57.6267 182.313 58.64C181.247 59.6533 180.713 61.1333 180.713 63.08ZM194.659 62.88V74H191.499V54.48H194.659V58.2C195.272 56.84 196.112 55.8133 197.179 55.12C198.272 54.4267 199.512 54.08 200.899 54.08C202.472 54.08 203.752 54.4267 204.739 55.12C205.725 55.7867 206.392 56.8267 206.739 58.24C207.405 56.8533 208.312 55.8133 209.459 55.12C210.605 54.4267 211.912 54.08 213.379 54.08C215.405 54.08 216.952 54.6533 218.019 55.8C219.085 56.92 219.619 58.6667 219.619 61.04V74H216.459V61.68C216.459 60.0267 216.139 58.8 215.499 58C214.859 57.2 213.805 56.8 212.339 56.8C211.379 56.8 210.499 57.04 209.699 57.52C208.925 58 208.299 58.6933 207.819 59.6C207.365 60.48 207.139 61.5733 207.139 62.88V74H203.979V61.68C203.979 60.0267 203.659 58.8 203.019 58C202.379 57.2 201.325 56.8 199.859 56.8C198.899 56.8 198.019 57.04 197.219 57.52C196.445 58 195.819 58.6933 195.339 59.6C194.885 60.48 194.659 61.5733 194.659 62.88ZM231.912 72.12C233.539 72.12 234.792 71.7333 235.672 70.96C236.552 70.16 236.992 68.84 236.992 67V65.08H231.872C230.352 65.08 229.299 65.3467 228.712 65.88C228.125 66.3867 227.832 67.1067 227.832 68.04V68.88C227.832 69.9467 228.165 70.76 228.832 71.32C229.499 71.8533 230.525 72.12 231.912 72.12ZM236.992 74V71.28C236.485 72.32 235.752 73.1067 234.792 73.64C233.859 74.1467 232.592 74.4 230.992 74.4C228.965 74.4 227.405 73.9333 226.312 73C225.245 72.0667 224.712 70.8 224.712 69.2V68C224.712 66.5867 225.232 65.4133 226.272 64.48C227.312 63.5467 229.085 63.08 231.592 63.08H236.992V61.44C236.992 59.76 236.672 58.5733 236.032 57.88C235.392 57.16 234.285 56.8 232.712 56.8C231.299 56.8 230.259 57.1067 229.592 57.72C228.925 58.3333 228.525 59.1333 228.392 60.12H225.352C225.592 58.3333 226.299 56.88 227.472 55.76C228.672 54.64 230.512 54.08 232.992 54.08C235.392 54.08 237.179 54.6533 238.352 55.8C239.525 56.92 240.112 58.6667 240.112 61.04V74H236.992ZM253.781 71.68C255.194 71.68 256.261 71.3733 256.981 70.76C257.727 70.12 258.221 69.1733 258.461 67.92H261.461C261.274 69.3333 260.834 70.5333 260.141 71.52C259.474 72.48 258.594 73.2 257.501 73.68C256.434 74.16 255.167 74.4 253.701 74.4C251.247 74.4 249.274 73.68 247.781 72.24C246.287 70.7733 245.541 68.6267 245.541 65.8V62.76C245.541 60.84 245.887 59.24 246.581 57.96C247.274 56.68 248.221 55.72 249.421 55.08C250.647 54.4133 252.087 54.08 253.741 54.08C256.114 54.08 257.927 54.68 259.181 55.88C260.461 57.08 261.154 58.6533 261.261 60.6H258.221C258.034 59.3467 257.581 58.4 256.861 57.76C256.141 57.12 255.101 56.8 253.741 56.8C252.007 56.8 250.741 57.3333 249.941 58.4C249.141 59.44 248.741 60.9067 248.741 62.8V65.72C248.741 67.5867 249.154 69.0533 249.981 70.12C250.807 71.16 252.074 71.68 253.781 71.68ZM265.067 82.2H263.867V79.48H265.067C265.841 79.48 266.507 79.3733 267.067 79.16C267.654 78.9733 268.201 78.56 268.707 77.92C269.214 77.28 269.734 76.3067 270.267 75L271.347 72.44L263.627 54.48H266.987L272.907 68.6L278.787 54.48H282.027L272.907 76.04C272.241 77.6667 271.547 78.92 270.827 79.8C270.134 80.7067 269.334 81.3333 268.427 81.68C267.521 82.0267 266.401 82.2 265.067 82.2Z" fill="#002902"/>
<defs>
<linearGradient id="paint0_linear_32_49" x1="97.5" y1="5" x2="97.5" y2="75" gradientUnits="userSpaceOnUse">
<stop stop-color="#015A06"/>
<stop offset="1" stop-color="#98B696"/>
</linearGradient>
</defs>
</svg>
